<svg width="163" height="61" viewBox="0 0 163 61" fill="none" xmlns="http://www.w3.org/2000/svg">
<path d="M58.6931 50.5783C55.7246 50.5783 53.1609 49.9614 51.0019 48.7278C48.8559 47.4813 47.2045 45.7207 46.048 43.4461C44.8914 41.1587 44.3131 38.4665 44.3131 35.3694C44.3131 32.3238 44.8914 29.6509 46.048 27.3506C47.2174 25.0375 48.8494 23.2384 50.9441 21.9533C53.0388 20.6554 55.4997 20.0064 58.3269 20.0064C60.1517 20.0064 61.8737 20.302 63.4928 20.8931C65.1249 21.4714 66.5642 22.3709 67.8107 23.5918C69.0701 24.8126 70.0596 26.3675 70.7792 28.2566C71.4989 30.1328 71.8587 32.3688 71.8587 34.9646V37.1043H47.5901V32.4009H65.1699C65.157 31.0645 64.8679 29.8758 64.3024 28.8348C63.737 27.7811 62.9467 26.9522 61.9315 26.3482C60.9291 25.7442 59.7597 25.4423 58.4232 25.4423C56.9968 25.4423 55.7439 25.7892 54.6644 26.4832C53.5849 27.1643 52.7432 28.0638 52.1392 29.1818C51.5481 30.287 51.2461 31.5014 51.2332 32.825V36.9308C51.2332 38.6528 51.5481 40.1306 52.1778 41.3643C52.8075 42.5851 53.6877 43.5232 54.8186 44.1786C55.9495 44.8212 57.2731 45.1424 58.7895 45.1424C59.8047 45.1424 60.7235 45.0011 61.546 44.7184C62.3684 44.4228 63.0816 43.9923 63.6856 43.4269C64.2896 42.8614 64.7458 42.1611 65.0542 41.3258L71.5695 42.0582C71.1583 43.7802 70.3744 45.2838 69.2178 46.5689C68.0741 47.8411 66.6091 48.8306 64.8229 49.5374C63.0366 50.2313 60.9934 50.5783 58.6931 50.5783ZM87.4201 50.5783C84.4644 50.5783 81.9264 49.9293 79.806 48.6314C77.6985 47.3335 76.0729 45.5408 74.9292 43.2534C73.7983 40.9531 73.2329 38.3058 73.2329 35.3116C73.2329 32.3045 73.8111 29.6509 74.9677 27.3506C76.1243 25.0375 77.7563 23.2384 79.8638 21.9533C81.9842 20.6554 84.4901 20.0064 87.3815 20.0064C89.7846 20.0064 91.9114 20.4497 93.7619 21.3364C95.6253 22.2103 97.1095 23.4504 98.2147 25.0567C99.3198 26.6502 99.9495 28.5136 100.104 30.6468H93.4342C93.1643 29.2204 92.5218 28.0317 91.5066 27.0807C90.5042 26.1169 89.1613 25.635 87.4779 25.635C86.0515 25.635 84.7985 26.0205 83.7191 26.7916C82.6396 27.5498 81.7979 28.6421 81.1939 30.0685C80.6028 31.4949 80.3072 33.2041 80.3072 35.196C80.3072 37.2135 80.6028 38.9484 81.1939 40.4005C81.785 41.8398 82.6139 42.9514 83.6805 43.7353C84.76 44.5063 86.0258 44.8918 87.4779 44.8918C88.506 44.8918 89.4248 44.6991 90.2344 44.3136C91.0568 43.9152 91.7443 43.3433 92.2969 42.598C92.8495 41.8526 93.2286 40.9467 93.4342 39.8801H100.104C99.9367 41.9747 99.3198 43.8316 98.2532 45.4508C97.1866 47.0572 95.7345 48.3166 93.8968 49.229C92.0592 50.1285 89.9003 50.5783 87.4201 50.5783ZM109.555 32.6515V50H102.577V10.5226H109.4V25.423H109.747C110.441 23.7524 111.514 22.4352 112.966 21.4714C114.431 20.4947 116.295 20.0064 118.557 20.0064C120.613 20.0064 122.405 20.4369 123.935 21.2979C125.464 22.1589 126.646 23.4183 127.481 25.076C128.33 26.7338 128.754 28.7577 128.754 31.148V50H121.776V32.2274C121.776 30.2356 121.262 28.6871 120.234 27.5819C119.218 26.4639 117.792 25.9049 115.954 25.9049C114.721 25.9049 113.615 26.1747 112.639 26.7145C111.675 27.2414 110.917 28.006 110.364 29.0083C109.824 30.0107 109.555 31.2251 109.555 32.6515ZM145.525 50.5783C142.633 50.5783 140.127 49.9422 138.007 48.6699C135.887 47.3977 134.242 45.6179 133.072 43.3305C131.916 41.043 131.337 38.3701 131.337 35.3116C131.337 32.2531 131.916 29.5738 133.072 27.2735C134.242 24.9732 135.887 23.187 138.007 21.9147C140.127 20.6425 142.633 20.0064 145.525 20.0064C148.416 20.0064 150.922 20.6425 153.042 21.9147C155.163 23.187 156.801 24.9732 157.958 27.2735C159.127 29.5738 159.712 32.2531 159.712 35.3116C159.712 38.3701 159.127 41.043 157.958 43.3305C156.801 45.6179 155.163 47.3977 153.042 48.6699C150.922 49.9422 148.416 50.5783 145.525 50.5783ZM145.563 44.9882C147.131 44.9882 148.442 44.5577 149.495 43.6967C150.549 42.8229 151.333 41.6535 151.847 40.1885C152.374 38.7235 152.637 37.0914 152.637 35.2923C152.637 33.4804 152.374 31.8419 151.847 30.3769C151.333 28.8991 150.549 27.7233 149.495 26.8494C148.442 25.9756 147.131 25.5386 145.563 25.5386C143.957 25.5386 142.62 25.9756 141.554 26.8494C140.5 27.7233 139.71 28.8991 139.183 30.3769C138.669 31.8419 138.412 33.4804 138.412 35.2923C138.412 37.0914 138.669 38.7235 139.183 40.1885C139.71 41.6535 140.5 42.8229 141.554 43.6967C142.62 44.5577 143.957 44.9882 145.563 44.9882Z" fill="#3F3F3F"/>
<circle cx="16" cy="36" r="16" fill="#3F3F3F"/>
</svg>
